# Blender v2.83.21 Release Candidate OBJ File: ''
# www.blender.org
mtllib master_chef_can_vhacd1.mtl
o convex_0.004
v -0.021117 -0.047043 -0.008151
v -0.020088 -0.048071 -0.073039
v -0.013917 -0.049100 0.008332
v -0.046882 0.024032 0.013484
v -0.011849 -0.049100 0.013484
v 0.047891 0.012697 0.013484
v 0.032441 -0.037765 0.013484
v -0.053064 -0.002742 -0.074085
v -0.026270 0.045673 -0.074085
v 0.037594 0.034328 -0.074085
v 0.023164 -0.044975 -0.074085
v -0.007735 -0.051167 -0.073039
v -0.036576 -0.037765 -0.074085
v -0.020088 0.047730 0.013484
v 0.027288 0.042567 0.013484
v -0.041729 0.033300 -0.074085
v -0.052025 -0.002742 0.013484
v 0.040680 -0.029526 -0.074085
v -0.049968 -0.018191 -0.073039
v -0.050997 0.015793 -0.073039
v 0.048919 -0.005828 0.013484
v 0.046862 -0.016134 0.012438
v 0.048919 -0.010981 -0.073039
v 0.008743 0.050816 0.009361
v 0.006686 0.051855 -0.063773
v -0.002582 0.051855 0.009361
v -0.006696 0.051855 -0.073039
v 0.009772 -0.050128 -0.073039
v -0.052025 0.007544 0.010389
v 0.048919 0.011669 -0.073039
v 0.044805 0.024032 -0.073039
v 0.042738 0.026089 0.011418
v -0.050997 -0.012009 0.009361
v -0.044815 -0.026430 0.011418
v 0.041709 -0.027459 0.010389
v 0.049958 0.002401 -0.074085
v 0.044805 -0.023344 -0.073039
v 0.030374 -0.040861 -0.073039
v 0.022135 -0.044975 0.012438
v -0.042758 -0.031583 -0.070991
v -0.034519 -0.038794 0.010389
v 0.000504 -0.050128 0.013484
v 0.011829 -0.049100 0.010389
v -0.013917 0.050816 -0.072019
v 0.018021 0.047730 0.013484
v 0.022135 0.046692 -0.073039
v 0.038623 0.032271 0.011418
v 0.030374 0.041549 -0.070991
v -0.040701 0.033300 0.012438
v -0.032452 0.041539 0.009361
v -0.030394 -0.042918 -0.070991
v -0.028337 -0.042918 0.011418
v 0.013896 0.049788 -0.074085
v -0.019060 0.048759 0.009361
v -0.033480 0.041539 -0.073039
v -0.040701 -0.031583 0.013484
v -0.044815 0.029185 -0.070991
v -0.053064 0.006516 -0.072019
v 0.048919 0.008583 0.010389
v 0.022135 -0.046004 -0.070991
v 0.003590 -0.051167 -0.072019
v -0.025241 0.046702 -0.072019
v 0.038623 -0.032612 -0.070991
v -0.009792 0.050816 0.013484
vn -0.2967 -0.9549 0.0104
vn -0.0000 -0.0000 1.0000
vn -0.0000 0.0000 -1.0000
vn -0.0127 -0.1048 -0.9944
vn -0.2413 -0.1136 -0.9638
vn -0.2669 0.0839 -0.9601
vn -0.0418 -0.1669 -0.9851
vn 0.9804 -0.1969 0.0117
vn 0.3018 -0.1557 0.9406
vn 0.0914 0.9958 0.0116
vn -0.0000 1.0000 0.0000
vn 0.0138 -0.2334 -0.9723
vn -0.8320 0.1598 0.5312
vn -0.9554 0.2948 0.0174
vn 0.9488 0.3157 0.0075
vn 0.9325 0.3610 0.0140
vn -0.9932 -0.1154 0.0118
vn -0.8404 -0.2954 0.4545
vn -0.9805 -0.1963 0.0025
vn -0.9199 -0.3918 0.0179
vn 0.6683 -0.4157 0.6169
vn 0.3429 -0.0996 -0.9341
vn 0.9970 -0.0771 0.0046
vn 0.4502 0.1498 -0.8803
vn 0.3064 0.1187 -0.9445
vn 0.9488 -0.3157 0.0038
vn 0.4464 -0.1485 -0.8824
vn 0.9092 -0.4161 0.0132
vn 0.3490 -0.3957 -0.8494
vn 0.5721 -0.8200 0.0157
vn -0.7223 -0.4669 -0.5103
vn -0.8810 -0.4731 0.0076
vn -0.7049 -0.7092 0.0085
vn 0.1187 -0.3067 0.9444
vn 0.2202 -0.8158 0.5348
vn -0.1974 0.7348 -0.6489
vn 0.4867 0.8735 0.0127
vn 0.4198 0.2896 0.8602
vn 0.4585 0.3052 0.8347
vn 0.8189 0.5739 0.0040
vn 0.8324 0.5541 0.0069
vn 0.5546 0.7275 -0.4039
vn 0.5279 0.8493 0.0091
vn 0.7089 0.7052 0.0084
vn 0.6739 0.7387 0.0157
vn -0.2285 0.2583 0.9387
vn -0.5154 0.7004 0.4938
vn -0.4730 -0.7952 -0.3794
vn -0.5565 -0.8307 0.0139
vn -0.6421 -0.7666 0.0063
vn 0.2831 0.9591 0.0057
vn 0.2626 0.4025 -0.8769
vn 0.0923 0.9868 -0.1333
vn -0.0249 0.2429 -0.9697
vn 0.3126 0.9499 0.0076
vn 0.3511 0.9363 0.0055
vn -0.4721 0.8757 0.1008
vn -0.3958 0.4945 -0.7738
vn -0.7072 0.7070 0.0084
vn -0.7050 0.7091 0.0088
vn -0.6776 -0.2660 0.6857
vn -0.2770 -0.4563 0.8456
vn -0.7851 -0.6191 0.0191
vn -0.5353 -0.6762 0.5062
vn -0.7552 -0.6553 0.0184
vn -0.8569 0.4373 -0.2730
vn -0.9081 0.4187 0.0033
vn -0.8312 0.5559 0.0136
vn -0.7966 0.6045 0.0095
vn -0.9999 -0.0026 0.0119
vn -0.8249 0.1231 -0.5517
vn -0.9999 0.0038 0.0126
vn -0.9758 0.2185 0.0096
vn 0.9717 0.2362 0.0087
vn 0.9668 0.0537 0.2498
vn 0.9938 0.1109 0.0041
vn 0.9999 0.0026 0.0121
vn 0.3391 -0.9206 -0.1934
vn 0.3159 -0.9488 0.0039
vn 0.5049 -0.8553 -0.1165
vn 0.3696 -0.9291 0.0115
vn 0.5314 -0.8471 0.0104
vn -0.4461 -0.8950 0.0071
vn -0.4718 -0.8816 0.0118
vn 0.0495 -0.8340 -0.5495
vn 0.1670 -0.9859 0.0080
vn -0.0011 -0.9999 0.0121
vn 0.0946 -0.9954 0.0155
vn -0.3272 0.9007 -0.2856
vn -0.4745 0.8801 0.0138
vn -0.3415 0.9399 0.0022
vn -0.5086 0.8446 -0.1674
vn -0.5316 0.8470 0.0066
vn 0.7456 -0.6663 0.0139
vn 0.8319 -0.5550 -0.0005
vn 0.8323 -0.5544 0.0035
vn 0.7060 -0.7081 0.0085
vn 0.7174 -0.6699 -0.1912
vn 0.0845 0.9212 0.3799
vn -0.1387 0.9903 0.0069
vn -0.1415 0.9899 0.0068
vn 0.0988 0.8905 0.4442
vn -0.2832 0.9447 0.1652
vn -0.2212 0.9752 0.0107
vn -0.3633 -0.9202 0.1458
vn -0.2431 -0.9700 0.0062
vn -0.0829 -0.9960 0.0333
vn -0.0780 -0.9968 0.0194
vn -0.3839 -0.9219 0.0527
usemtl Default_OBJ.004
s off
f 1//1 2//1 3//1
f 4//2 5//2 6//2
f 6//2 5//2 7//2
f 8//3 9//3 10//3
f 8//3 10//3 11//3
f 11//4 12//4 13//4
f 8//3 11//3 13//3
f 4//2 6//2 14//2
f 14//2 6//2 15//2
f 9//3 8//3 16//3
f 5//2 4//2 17//2
f 11//3 10//3 18//3
f 8//5 13//5 19//5
f 16//6 8//6 20//6
f 13//7 12//7 2//7
f 6//2 7//2 21//2
f 22//8 23//8 21//8
f 7//9 22//9 21//9
f 24//10 25//10 26//10
f 25//11 27//11 26//11
f 12//12 11//12 28//12
f 17//13 4//13 29//13
f 4//14 20//14 29//14
f 6//15 30//15 31//15
f 32//16 6//16 31//16
f 17//17 8//17 33//17
f 34//18 17//18 33//18
f 8//19 19//19 33//19
f 19//20 34//20 33//20
f 22//21 7//21 35//21
f 23//22 18//22 36//22
f 18//3 10//3 36//3
f 21//23 23//23 36//23
f 31//24 30//24 36//24
f 10//25 31//25 36//25
f 23//26 22//26 37//26
f 18//27 23//27 37//27
f 22//28 35//28 37//28
f 11//29 18//29 38//29
f 38//30 7//30 39//30
f 19//31 13//31 40//31
f 34//32 19//32 40//32
f 40//33 13//33 41//33
f 7//2 5//2 42//2
f 39//34 7//34 42//34
f 43//35 39//35 42//35
f 27//36 9//36 44//36
f 14//2 15//2 45//2
f 15//37 46//37 45//37
f 15//38 6//38 47//38
f 6//39 32//39 47//39
f 31//40 10//40 47//40
f 32//41 31//41 47//41
f 10//42 46//42 48//42
f 46//43 15//43 48//43
f 47//44 10//44 48//44
f 15//45 47//45 48//45
f 4//46 14//46 49//46
f 14//47 50//47 49//47
f 13//48 2//48 51//48
f 52//49 41//49 51//49
f 41//50 13//50 51//50
f 25//51 24//51 53//51
f 10//3 9//3 53//3
f 46//52 10//52 53//52
f 27//53 25//53 53//53
f 9//54 27//54 53//54
f 24//55 45//55 53//55
f 45//56 46//56 53//56
f 50//57 14//57 54//57
f 9//58 16//58 55//58
f 16//59 49//59 55//59
f 49//60 50//60 55//60
f 5//2 17//2 56//2
f 17//61 34//61 56//61
f 52//62 5//62 56//62
f 34//63 40//63 56//63
f 41//64 52//64 56//64
f 40//65 41//65 56//65
f 16//66 20//66 57//66
f 20//67 4//67 57//67
f 4//68 49//68 57//68
f 49//69 16//69 57//69
f 8//70 17//70 58//70
f 20//71 8//71 58//71
f 17//72 29//72 58//72
f 29//73 20//73 58//73
f 30//74 6//74 59//74
f 6//75 21//75 59//75
f 36//76 30//76 59//76
f 21//77 36//77 59//77
f 28//78 11//78 60//78
f 43//79 28//79 60//79
f 11//80 38//80 60//80
f 39//81 43//81 60//81
f 38//82 39//82 60//82
f 51//83 2//83 1//83
f 52//84 51//84 1//84
f 12//85 28//85 61//85
f 28//86 43//86 61//86
f 42//87 12//87 61//87
f 43//88 42//88 61//88
f 44//89 9//89 62//89
f 50//90 54//90 62//90
f 54//91 44//91 62//91
f 9//92 55//92 62//92
f 55//93 50//93 62//93
f 35//94 7//94 63//94
f 18//95 37//95 63//95
f 37//96 35//96 63//96
f 7//97 38//97 63//97
f 38//98 18//98 63//98
f 24//99 26//99 64//99
f 26//100 27//100 64//100
f 27//101 44//101 64//101
f 45//102 24//102 64//102
f 14//2 45//2 64//2
f 54//103 14//103 64//103
f 44//104 54//104 64//104
f 5//105 52//105 3//105
f 2//106 12//106 3//106
f 42//107 5//107 3//107
f 12//108 42//108 3//108
f 52//109 1//109 3//109
o convex_1.004
v 0.043776 0.027118 0.060873
v 0.046862 0.020936 0.061900
v 0.044805 0.021975 0.014517
v -0.043786 0.029185 0.013484
v 0.048919 -0.004799 0.013484
v -0.032452 -0.039822 0.013484
v 0.031403 0.039481 0.013484
v 0.027288 -0.041879 0.013484
v -0.039662 -0.033640 0.067055
v 0.047891 -0.013038 0.067055
v 0.042738 0.026099 0.067055
v -0.030394 0.042577 0.067055
v -0.009792 0.050816 0.013484
v -0.050997 -0.009952 0.013484
v 0.026260 -0.042918 0.067055
v 0.047891 0.012697 0.013484
v 0.049958 0.010640 0.064994
v 0.038623 -0.033640 0.064994
v -0.011849 -0.049100 0.013484
v 0.004619 -0.050128 0.015550
v -0.005668 -0.051167 0.058812
v -0.018031 -0.049100 0.064994
v 0.011829 -0.050128 0.064994
v -0.044815 -0.026430 0.014517
v -0.049968 -0.019220 0.062933
v 0.008743 0.051855 0.064994
v 0.008743 0.051855 0.061900
v -0.007725 0.051855 0.066022
v -0.052025 -0.006856 0.067055
v -0.044815 0.029185 0.066022
v -0.053064 0.007544 0.064994
v -0.036576 0.039481 0.064994
v -0.033480 0.040510 0.015550
v 0.015953 0.048759 0.067055
v 0.031403 0.041539 0.064994
v -0.049968 0.019908 0.060873
v -0.050997 0.012697 0.015550
v -0.008763 -0.050128 0.067055
v -0.033480 -0.040861 0.064994
v -0.042758 -0.031583 0.061900
v -0.025241 -0.044985 0.022765
v 0.006686 0.050816 0.013484
v 0.015953 0.048759 0.016578
v 0.049958 -0.008924 0.064994
v -0.025241 0.045673 0.013484
v -0.022145 0.048759 0.059840
v 0.020078 -0.046004 0.015550
v 0.026260 -0.043947 0.059840
v 0.025231 0.045663 0.060873
v -0.052025 -0.001703 0.013484
v -0.053064 -0.006856 0.060873
v 0.042738 -0.025402 0.014517
v 0.047891 -0.013038 0.016578
v 0.047891 -0.017163 0.059840
v 0.036556 -0.033640 0.013484
v 0.039652 0.033300 0.061900
v 0.041709 0.028157 0.018638
v -0.039662 -0.033640 0.015550
v 0.032441 -0.039822 0.061900
v 0.044805 -0.024373 0.064994
v -0.031423 0.043606 0.063956
v 0.026260 0.043596 0.015550
v -0.046882 0.024022 0.013484
v -0.015974 0.050816 0.064994
vn 0.8963 0.4426 -0.0292
vn 0.0000 0.0000 -1.0000
vn -0.0000 0.0000 1.0000
vn 0.3690 0.0486 0.9282
vn 0.9976 0.0586 -0.0377
vn 0.3328 -0.2409 0.9117
vn -0.0576 -0.9976 -0.0376
vn 0.0833 -0.4514 -0.8884
vn -0.1751 -0.9843 -0.0210
vn 0.0625 -0.9980 -0.0091
vn -0.2444 -0.1517 -0.9577
vn -0.9343 -0.3534 -0.0468
vn 0.0000 1.0000 0.0000
vn -0.0049 0.9998 -0.0196
vn -0.7076 -0.3266 0.6266
vn -0.3856 0.1034 0.9169
vn -0.1196 0.0523 0.9914
vn -0.7814 0.6238 -0.0153
vn -0.4790 0.4581 0.7488
vn -0.7363 0.6759 -0.0320
vn 0.2706 0.3199 0.9080
vn 0.0484 0.6292 0.7757
vn -0.0217 0.1629 0.9864
vn -0.8941 0.3262 0.3070
vn -0.9712 0.2379 -0.0158
vn -0.1268 -0.9889 0.0770
vn 0.0897 -0.4355 0.8957
vn 0.0130 -0.9914 0.1298
vn -0.2411 -0.4521 0.8588
vn -0.2409 -0.4515 0.8592
vn -0.8158 -0.5001 0.2904
vn -0.8643 -0.5026 -0.0171
vn -0.7245 -0.6684 0.1684
vn -0.4035 -0.8961 -0.1850
vn -0.3175 -0.9475 -0.0381
vn -0.5580 -0.8294 -0.0279
vn -0.4706 -0.8823 -0.0056
vn 0.0000 0.9998 -0.0215
vn 0.2263 0.9736 -0.0305
vn 0.9998 0.0000 -0.0202
vn 0.7061 0.0000 0.7081
vn -0.3156 0.9480 -0.0420
vn -0.5234 0.5887 -0.6161
vn 0.1796 -0.6732 -0.7174
vn 0.2576 -0.9655 -0.0376
vn 0.3902 -0.9207 -0.0117
vn 0.4287 -0.8944 0.1276
vn 0.4903 -0.8711 -0.0280
vn 0.3516 0.9362 0.0000
vn 0.3511 0.9363 -0.0081
vn 0.4369 0.8725 0.2188
vn 0.3703 0.9242 0.0929
vn -0.9965 0.0760 -0.0337
vn -0.9687 -0.2469 -0.0261
vn -0.9851 -0.0474 0.1656
vn -0.9633 -0.2142 0.1619
vn -0.9917 -0.1236 -0.0352
vn -0.9998 0.0061 -0.0213
vn 0.8461 -0.2767 -0.4556
vn 0.9246 -0.3793 -0.0362
vn 0.9903 -0.1351 -0.0308
vn 0.9729 -0.2303 -0.0220
vn 0.3588 -0.1538 -0.9207
vn 0.8014 -0.5973 -0.0322
vn 0.7010 0.7126 -0.0285
vn 0.7213 0.5801 0.3785
vn 0.7486 0.6617 -0.0431
vn 0.8275 0.5149 0.2238
vn 0.8295 0.5578 -0.0269
vn -0.6181 -0.5255 -0.5846
vn -0.6553 -0.7548 -0.0283
vn -0.8113 -0.5839 -0.0283
vn -0.7044 -0.7096 -0.0156
vn 0.6057 -0.7452 0.2787
vn 0.5606 -0.8277 -0.0245
vn 0.5230 -0.8438 0.1203
vn 0.6639 -0.7468 -0.0389
vn 0.7139 -0.6996 -0.0286
vn 0.8704 0.3620 0.3337
vn 0.9595 0.2803 -0.0273
vn 0.8575 0.4647 0.2206
vn 0.4029 -0.2688 0.8749
vn 0.8317 -0.5548 -0.0227
vn 0.9113 -0.4107 -0.0289
vn 0.9035 -0.3014 0.3046
vn 0.9413 -0.3140 0.1244
vn -0.5144 0.7481 0.4192
vn -0.6276 0.7782 -0.0231
vn -0.4938 0.8692 -0.0249
vn -0.5363 0.8434 -0.0312
vn 0.6167 0.7866 -0.0314
vn 0.3298 0.7192 -0.6115
vn 0.3448 0.7894 -0.5079
vn 0.5667 0.8235 -0.0247
vn 0.4452 0.8949 -0.0307
vn -0.8575 0.5142 -0.0168
vn -0.8708 0.4915 -0.0140
vn -0.9413 0.3362 -0.0321
vn -0.7367 0.1473 -0.6600
vn -0.2898 0.9565 -0.0348
vn -0.1692 0.5075 0.8449
vn -0.1231 0.9923 -0.0148
vn -0.4086 0.8170 0.4069
vn -0.4263 0.8912 0.1548
vn 0.3572 0.2199 -0.9078
vn 0.7700 0.5729 -0.2809
vn 0.8850 0.4645 -0.0319
vn 0.9472 0.3188 -0.0341
usemtl Default_OBJ.004
s off
f 65//110 66//110 67//110
f 68//111 69//111 70//111
f 69//111 68//111 71//111
f 70//111 69//111 72//111
f 73//112 74//112 75//112
f 73//112 75//112 76//112
f 71//111 68//111 77//111
f 68//111 70//111 78//111
f 74//112 73//112 79//112
f 69//111 71//111 80//111
f 75//113 74//113 81//113
f 69//114 80//114 81//114
f 74//115 79//115 82//115
f 70//111 72//111 83//111
f 84//116 85//116 83//116
f 72//117 84//117 83//117
f 85//118 86//118 83//118
f 85//119 84//119 87//119
f 78//120 70//120 88//120
f 89//121 78//121 88//121
f 90//122 91//122 92//122
f 91//123 77//123 92//123
f 73//112 76//112 93//112
f 89//124 73//124 93//124
f 94//125 95//125 93//125
f 76//126 94//126 93//126
f 68//127 94//127 96//127
f 94//128 76//128 96//128
f 97//129 68//129 96//129
f 76//112 75//112 98//112
f 75//130 99//130 98//130
f 90//131 92//131 98//131
f 92//132 76//132 98//132
f 95//133 94//133 100//133
f 101//134 95//134 100//134
f 79//112 73//112 102//112
f 86//135 85//135 102//135
f 87//136 79//136 102//136
f 85//137 87//137 102//137
f 103//138 86//138 102//138
f 73//139 103//139 102//139
f 73//140 89//140 104//140
f 89//141 88//141 104//141
f 103//142 73//142 104//142
f 70//143 83//143 105//143
f 83//144 86//144 105//144
f 103//145 70//145 105//145
f 86//146 103//146 105//146
f 77//147 91//147 106//147
f 71//111 77//111 106//111
f 91//148 107//148 106//148
f 69//149 81//149 108//149
f 81//150 74//150 108//150
f 77//111 68//111 109//111
f 110//151 77//151 109//151
f 68//152 97//152 109//152
f 84//153 72//153 111//153
f 87//154 84//154 111//154
f 87//155 111//155 112//155
f 79//156 87//156 112//156
f 111//157 72//157 112//157
f 91//158 90//158 113//158
f 107//159 91//159 113//159
f 98//160 99//160 113//160
f 90//161 98//161 113//161
f 68//111 78//111 114//111
f 95//162 101//162 114//162
f 78//163 89//163 115//163
f 93//164 95//164 115//164
f 89//165 93//165 115//165
f 114//166 78//166 115//166
f 95//167 114//167 115//167
f 116//168 69//168 117//168
f 118//169 116//169 117//169
f 69//170 108//170 117//170
f 108//171 118//171 117//171
f 72//111 69//111 119//111
f 69//172 116//172 119//172
f 116//173 82//173 119//173
f 71//174 99//174 120//174
f 99//175 75//175 120//175
f 121//176 71//176 120//176
f 75//177 65//177 120//177
f 65//178 121//178 120//178
f 88//179 70//179 122//179
f 70//180 103//180 122//180
f 104//181 88//181 122//181
f 103//182 104//182 122//182
f 82//183 79//183 123//183
f 112//184 72//184 123//184
f 79//185 112//185 123//185
f 72//186 119//186 123//186
f 119//187 82//187 123//187
f 75//188 81//188 66//188
f 81//189 80//189 66//189
f 65//190 75//190 66//190
f 74//191 82//191 124//191
f 82//192 116//192 124//192
f 116//193 118//193 124//193
f 108//194 74//194 124//194
f 118//195 108//195 124//195
f 96//196 76//196 125//196
f 97//197 96//197 125//197
f 110//198 109//198 125//198
f 109//199 97//199 125//199
f 99//200 71//200 126//200
f 71//201 106//201 126//201
f 106//202 107//202 126//202
f 113//203 99//203 126//203
f 107//204 113//204 126//204
f 94//205 68//205 127//205
f 100//206 94//206 127//206
f 101//207 100//207 127//207
f 68//111 114//111 127//111
f 114//208 101//208 127//208
f 77//209 110//209 128//209
f 76//210 92//210 128//210
f 92//211 77//211 128//211
f 125//212 76//212 128//212
f 110//213 125//213 128//213
f 80//214 71//214 67//214
f 71//215 121//215 67//215
f 121//216 65//216 67//216
f 66//217 80//217 67//217
