# Blender v2.83.21 Release Candidate OBJ File: ''
# www.blender.org
mtllib textured_new_4.mtl
o convex_4.005
v 0.050365 0.072757 -0.001411
v 0.057705 0.070499 -0.002540
v 0.057705 0.073887 -0.004234
v 0.049800 0.060336 -0.012135
v 0.049800 0.059771 -0.011006
v 0.049800 0.073887 -0.002540
v 0.049800 0.071064 -0.014394
v 0.057705 0.075017 -0.005927
v 0.057705 0.063725 -0.011006
v 0.057705 0.071064 -0.015526
v 0.057705 0.067113 -0.002540
v 0.049800 0.060336 -0.003105
v 0.050365 0.063725 0.001413
v 0.049800 0.067113 0.001413
v 0.057705 0.064853 -0.013830
v 0.049800 0.065983 -0.014394
v 0.050365 0.060336 -0.003105
v 0.057705 0.075581 -0.012135
v 0.057705 0.064853 -0.006493
v 0.056010 0.075581 -0.008184
v 0.050365 0.075017 -0.009877
v 0.056010 0.075581 -0.011573
v 0.049800 0.074452 -0.011006
v 0.050365 0.059771 -0.005364
vn 0.2653 0.4312 0.8624
vn -1.0000 0.0000 0.0000
vn 1.0000 0.0000 0.0000
vn 0.4742 0.0000 0.8804
vn -0.9577 -0.1597 0.2396
vn 0.4219 0.0704 0.9039
vn 0.3833 -0.8260 -0.4133
vn 0.4213 -0.8422 -0.3364
vn 0.0312 -0.2633 -0.9642
vn -0.1418 0.0000 -0.9899
vn 0.0131 -0.3714 -0.9284
vn 0.5693 -0.6577 0.4933
vn 0.0000 -0.8000 0.6001
vn -0.1138 0.5965 -0.7945
vn -0.5831 0.4094 0.7016
vn 0.2608 0.4110 0.8735
vn 0.6068 -0.6901 0.3945
vn -0.0262 0.9650 0.2608
vn -0.1400 0.9802 0.1402
vn -0.0994 0.9950 0.0000
vn 0.2064 0.9745 0.0885
vn 0.0000 1.0000 0.0000
vn -0.7491 0.6610 0.0441
vn -0.1985 0.9126 -0.3573
vn -0.1980 0.6931 -0.6931
vn -0.1962 0.7819 -0.5917
vn 0.4469 -0.8935 -0.0448
vn -0.5801 -0.8124 0.0581
vn 0.0000 -0.9701 0.2426
vn 0.5784 -0.7914 0.1978
vn 0.5784 -0.7914 0.1979
vn 0.1181 0.8259 0.5513
vn 0.1422 0.7343 0.6638
usemtl Default_OBJ.005
s off
f 1//1 2//1 3//1
f 4//2 5//2 6//2
f 4//2 6//2 7//2
f 8//3 9//3 10//3
f 9//3 8//3 11//3
f 6//2 5//2 12//2
f 11//3 8//3 2//3
f 13//4 11//4 2//4
f 6//2 12//2 14//2
f 12//5 13//5 14//5
f 13//6 2//6 14//6
f 5//7 4//7 15//7
f 9//8 5//8 15//8
f 10//3 9//3 15//3
f 10//9 15//9 16//9
f 4//2 7//2 16//2
f 7//10 10//10 16//10
f 15//11 4//11 16//11
f 11//12 13//12 17//12
f 13//13 12//13 17//13
f 8//3 10//3 18//3
f 10//14 7//14 18//14
f 6//15 14//15 1//15
f 14//16 2//16 1//16
f 9//3 11//3 19//3
f 11//17 17//17 19//17
f 6//18 8//18 20//18
f 21//19 6//19 20//19
f 22//20 21//20 20//20
f 8//21 18//21 20//21
f 18//22 22//22 20//22
f 7//2 6//2 23//2
f 6//23 21//23 23//23
f 21//24 22//24 23//24
f 18//25 7//25 23//25
f 22//26 18//26 23//26
f 5//27 9//27 24//27
f 12//28 5//28 24//28
f 17//29 12//29 24//29
f 9//30 19//30 24//30
f 19//31 17//31 24//31
f 8//32 6//32 3//32
f 2//3 8//3 3//3
f 6//33 1//33 3//33
