# Blender v2.83.21 Release Candidate OBJ File: ''
# www.blender.org
mtllib textured_new_5.mtl
o convex_5.006
v 0.071254 0.075014 -0.015526
v 0.071821 0.071628 -0.016656
v 0.069563 0.074451 -0.016089
v 0.068431 0.071628 -0.017220
v 0.068431 0.069937 -0.017220
v 0.057705 0.071628 -0.015526
v 0.057705 0.064288 -0.013267
v 0.057705 0.066548 -0.003669
v 0.057705 0.074451 -0.004798
v 0.058836 0.069937 -0.002539
v 0.072384 0.071063 -0.004234
v 0.071821 0.075014 -0.005363
v 0.058271 0.064288 -0.008752
v 0.072384 0.066548 -0.014961
v 0.071821 0.065419 -0.010443
v 0.071254 0.065419 -0.014961
v 0.057705 0.075580 -0.012137
v 0.059400 0.076145 -0.011008
v 0.065047 0.076145 -0.013830
v 0.070691 0.067112 -0.016656
v 0.058271 0.068806 -0.015526
v 0.071821 0.076711 -0.008752
v 0.071821 0.076711 -0.012701
v 0.071821 0.067112 -0.005928
v 0.073515 0.068806 -0.009317
v 0.071821 0.068243 -0.004798
v 0.073515 0.071063 -0.012137
v 0.072950 0.075014 -0.007059
v 0.058271 0.067677 -0.002539
v 0.058271 0.075014 -0.005363
vn 0.1934 0.3396 -0.9205
vn -0.1560 0.0000 -0.9878
vn -1.0000 0.0000 0.0000
vn 0.0955 0.2861 0.9534
vn 0.0177 0.4510 0.8923
vn -0.8773 -0.4671 0.1100
vn 0.7040 -0.7047 -0.0884
vn 0.0819 -0.9966 -0.0103
vn -0.1361 0.9525 -0.2724
vn -0.2196 0.6351 -0.7406
vn -0.0283 -0.7119 -0.7017
vn 0.5146 -0.5151 -0.6854
vn -0.1609 -0.0323 -0.9864
vn -0.8262 -0.1657 -0.5384
vn -0.1259 -0.2901 -0.9487
vn -0.1397 -0.4288 -0.8925
vn -0.0455 0.9990 0.0000
vn -0.0621 0.9903 -0.1242
vn 0.0147 0.8558 -0.5170
vn 0.1211 -0.9295 0.3485
vn 0.1023 -0.9047 0.4136
vn 0.8944 -0.4472 -0.0003
vn 0.9173 -0.2458 0.3132
vn 0.9779 -0.1632 -0.1307
vn 0.9046 -0.3013 0.3016
vn 0.8536 -0.4877 0.1829
vn 0.8022 0.2669 0.5340
vn 0.5581 0.7420 0.3715
vn 0.8326 0.5539 0.0000
vn 0.9551 0.2757 -0.1082
vn 0.9772 0.0117 0.2122
vn 0.9959 0.0702 0.0562
vn 0.1641 0.0000 -0.9864
vn 0.9357 -0.0139 -0.3525
vn 0.1866 -0.0467 -0.9813
vn 0.6691 -0.1674 -0.7240
vn 0.9177 0.2439 -0.3135
vn 0.9024 0.2646 -0.3401
vn 0.1267 -0.0317 0.9914
vn -0.9144 0.0573 0.4008
vn -0.6962 0.1741 0.6964
vn 0.1694 -0.2257 0.9594
vn 0.1459 -0.6992 0.6999
vn 0.1358 -0.7340 0.6654
vn -0.0775 0.9804 0.1809
vn 0.0000 0.8942 0.4477
vn 0.0000 0.7083 0.7059
vn -0.6393 0.7600 0.1169
vn -0.3786 0.9192 0.1084
vn -0.1418 0.4166 -0.8980
vn -0.1768 0.5846 -0.7918
vn -0.0381 0.7614 -0.6471
vn 0.1559 0.3129 -0.9369
usemtl Default_OBJ.006
s off
f 1//1 2//1 3//1
f 4//2 5//2 6//2
f 7//3 8//3 6//3
f 6//3 8//3 9//3
f 10//4 11//4 12//4
f 9//5 10//5 12//5
f 8//6 7//6 13//6
f 14//7 15//7 16//7
f 13//8 7//8 16//8
f 15//8 13//8 16//8
f 6//3 9//3 17//3
f 18//9 19//9 17//9
f 19//10 6//10 17//10
f 16//11 7//11 20//11
f 14//12 16//12 20//12
f 6//13 5//13 21//13
f 7//14 6//14 21//14
f 5//15 20//15 21//15
f 20//16 7//16 21//16
f 18//17 22//17 23//17
f 19//18 18//18 23//18
f 1//19 19//19 23//19
f 13//20 15//20 24//20
f 8//21 13//21 24//21
f 15//22 14//22 25//22
f 11//23 26//23 25//23
f 14//24 27//24 25//24
f 26//25 24//25 25//25
f 24//26 15//26 25//26
f 12//27 11//27 28//27
f 22//28 12//28 28//28
f 23//29 22//29 28//29
f 27//30 23//30 28//30
f 11//31 25//31 28//31
f 25//32 27//32 28//32
f 5//33 4//33 2//33
f 27//34 14//34 2//34
f 20//35 5//35 2//35
f 14//36 20//36 2//36
f 23//37 27//37 2//37
f 1//38 23//38 2//38
f 11//39 10//39 29//39
f 9//40 8//40 29//40
f 10//41 9//41 29//41
f 26//42 11//42 29//42
f 24//43 26//43 29//43
f 8//44 24//44 29//44
f 22//45 18//45 30//45
f 12//46 22//46 30//46
f 9//47 12//47 30//47
f 17//48 9//48 30//48
f 18//49 17//49 30//49
f 4//50 6//50 3//50
f 6//51 19//51 3//51
f 19//52 1//52 3//52
f 2//53 4//53 3//53
