# Blender v2.83.21 Release Candidate OBJ File: ''
# www.blender.org
mtllib textured_new_1.mtl
o convex_1.002
v -0.005538 0.047905 -0.008745
v -0.019086 0.030962 -0.003665
v -0.017392 0.036612 -0.000841
v -0.034898 -0.021539 -0.001409
v -0.034332 -0.021539 -0.003101
v 0.002368 -0.021539 0.008751
v -0.024167 -0.021539 0.017787
v 0.010274 0.051860 -0.016652
v 0.010274 0.028703 0.019479
v 0.010274 0.013482 -0.009309
v -0.008363 -0.021530 0.018915
v -0.023605 -0.021539 -0.016656
v 0.010274 0.068241 -0.001969
v 0.000109 -0.021539 -0.009873
v 0.010274 0.004448 0.005928
v 0.010274 0.058073 0.017219
v 0.010274 0.040567 -0.016652
v 0.006883 0.062019 0.013835
v -0.004972 0.044522 0.017223
v -0.007797 0.047343 0.012139
v 0.002930 -0.021539 -0.002533
v -0.030379 -0.020968 0.014399
v -0.020780 0.030408 0.003668
v -0.026426 0.015732 -0.001409
v -0.028686 0.007831 0.006492
v -0.020214 0.024186 0.012136
v -0.002151 -0.020968 0.014963
v -0.016827 0.013473 -0.015520
v -0.008363 0.038308 -0.012697
v -0.004410 0.037746 -0.016088
v 0.005755 0.053556 -0.014956
v -0.032639 -0.005720 -0.000277
v -0.020214 0.016294 -0.011004
v -0.028120 -0.010237 -0.011008
v -0.023039 0.002180 0.017219
v 0.010274 0.014607 0.014399
v 0.009708 0.068241 0.004796
v -0.006670 0.052985 0.004800
v -0.004972 0.054110 -0.002533
v -0.012874 0.045075 0.003104
v -0.034332 -0.017575 0.005364
v -0.030941 -0.007416 0.010444
v -0.010618 -0.021530 -0.015520
v -0.001585 -0.021539 -0.011569
v 0.009708 0.064849 -0.007620
v -0.017392 0.020811 0.017219
v -0.015133 0.015169 0.018915
v -0.011184 0.003314 0.020047
v -0.002717 0.028712 0.020047
v -0.016265 -0.021530 -0.016652
v 0.009708 0.049601 0.018915
v 0.003496 0.063715 -0.000841
v -0.026426 -0.019271 -0.014956
v 0.006321 0.027025 0.020047
v -0.014005 0.036612 0.012703
v -0.026992 0.001618 0.013267
v 0.010274 0.026462 -0.013832
v 0.002368 0.061456 0.008187
v -0.029813 -0.002337 -0.005360
v -0.010618 0.019124 -0.016656
v -0.011750 -0.017575 0.019479
v 0.010274 0.006144 -0.001405
v 0.003496 -0.021539 0.003671
v 0.000109 0.043388 0.018915
vn -0.7526 0.4608 -0.4704
vn 0.0000 -1.0000 0.0000
vn 1.0000 0.0000 0.0000
vn 0.0005 -1.0000 0.0014
vn -0.3621 0.4077 0.8383
vn -0.5910 0.5199 0.6168
vn 0.9023 -0.2563 -0.3468
vn -0.1307 -0.9887 0.0731
vn -0.9389 0.3374 0.0688
vn -0.8827 0.3485 0.3151
vn 0.2571 -0.9272 0.2723
vn 0.5383 -0.2089 0.8164
vn -0.5993 0.2891 -0.7465
vn -0.2626 0.2358 -0.9356
vn -0.5592 0.4111 -0.7200
vn -0.9367 0.1562 -0.3133
vn -0.9605 0.2784 0.0036
vn -0.6616 0.3034 -0.6857
vn -0.7133 0.2127 -0.6678
vn -0.8054 0.3136 -0.5030
vn -0.7320 0.3491 -0.5851
vn -0.4753 0.0436 0.8788
vn 0.9219 -0.2481 0.2976
vn 0.7695 -0.2595 0.5836
vn 0.7118 -0.2381 0.6608
vn 0.2728 0.7506 0.6019
vn 0.9844 0.1554 0.0824
vn -0.7753 0.6260 -0.0835
vn -0.7806 0.5477 0.3012
vn -0.9034 -0.3328 0.2703
vn -0.9002 0.0872 0.4266
vn -0.9515 0.2011 0.2330
vn -0.9900 0.1414 -0.0000
vn -0.9669 0.2083 0.1476
vn 0.0011 -1.0000 -0.0048
vn 0.3961 -0.1498 -0.9059
vn 0.9601 0.1866 -0.2082
vn -0.0952 0.5655 -0.8192
vn -0.3055 0.1599 0.9387
vn -0.2129 0.0224 0.9768
vn -0.1417 0.0472 0.9888
vn -0.2653 0.0357 0.9635
vn -0.3902 0.1183 0.9131
vn 0.0012 -1.0000 -0.0061
vn 0.0005 -0.0002 -1.0000
vn 0.1959 -0.0837 -0.9771
vn 0.8785 0.0366 0.4763
vn -0.7422 0.6666 -0.0696
vn -0.5601 0.8271 -0.0469
vn -0.5558 0.7361 -0.3862
vn -0.6220 0.6303 -0.4646
vn -0.6985 -0.4545 -0.5528
vn -0.4435 0.1147 -0.8889
vn -0.8363 0.0802 -0.5424
vn -0.6749 0.1856 -0.7142
vn 0.1730 -0.0752 0.9820
vn 0.0000 -0.0000 1.0000
vn 0.1296 0.0303 0.9911
vn 0.0091 0.0487 0.9988
vn -0.5926 0.4496 -0.6683
vn -0.7355 0.4316 -0.5222
vn -0.6126 0.5864 -0.5299
vn -0.5961 0.5736 -0.5619
vn -0.6395 0.3349 0.6920
vn -0.6731 0.4213 0.6078
vn -0.7156 0.3294 0.6160
vn -0.8430 0.4051 0.3540
vn -0.8325 0.4606 0.3080
vn -0.8086 0.4853 0.3326
vn -0.7754 0.1471 0.6141
vn -0.8659 0.2416 0.4381
vn -0.7615 0.2585 0.5944
vn -0.8419 0.2761 0.4637
vn -0.7099 0.1410 0.6900
vn -0.7057 0.2139 0.6755
vn 0.7645 -0.2121 -0.6087
vn 0.6927 -0.2038 -0.6919
vn 0.5185 -0.1676 -0.8385
vn -0.6531 0.5998 0.4623
vn -0.7062 0.6095 0.3601
vn -0.5403 0.7624 0.3560
vn -0.6989 0.7096 0.0902
vn -0.6475 0.7544 0.1079
vn -0.8700 0.1495 -0.4699
vn -0.9047 0.1668 -0.3920
vn -0.9074 0.2448 -0.3416
vn -0.7899 0.2355 -0.5662
vn -0.8164 0.2652 -0.5130
vn -0.2490 0.0795 -0.9652
vn 0.0002 0.0000 -1.0000
vn 0.0003 -0.0001 -1.0000
vn -0.0990 0.0633 -0.9931
vn -0.2873 0.1247 -0.9497
vn -0.0697 -0.1990 0.9775
vn -0.1276 -0.0235 0.9915
vn 0.1023 -0.0541 0.9933
vn 0.0382 -0.0282 0.9989
vn 0.9442 -0.2414 -0.2241
vn 0.9637 -0.2521 -0.0879
vn 0.9417 -0.2638 0.2091
vn 0.9672 -0.2473 -0.0572
vn -0.2470 0.2782 0.9282
vn -0.2816 0.1521 0.9474
vn -0.2152 0.1162 0.9696
vn -0.0567 0.0876 0.9945
vn -0.1314 0.2030 0.9703
vn -0.9078 0.3965 -0.1366
vn -0.8864 0.3903 -0.2491
vn -0.8804 0.4742 -0.0090
vn -0.8008 0.5442 -0.2503
vn -0.7566 0.4958 -0.4263
usemtl Default_OBJ.002
s off
f 1//1 2//1 3//1
f 4//2 5//2 6//2
f 4//2 6//2 7//2
f 8//3 9//3 10//3
f 7//4 6//4 11//4
f 6//2 5//2 12//2
f 9//3 8//3 13//3
f 6//2 12//2 14//2
f 10//3 9//3 15//3
f 9//3 13//3 16//3
f 8//3 10//3 17//3
f 16//5 18//5 19//5
f 18//6 20//6 19//6
f 14//7 10//7 21//7
f 6//2 14//2 21//2
f 4//8 7//8 22//8
f 23//9 24//9 25//9
f 23//10 25//10 26//10
f 11//11 6//11 27//11
f 9//12 11//12 27//12
f 28//13 29//13 30//13
f 31//14 8//14 30//14
f 29//15 31//15 30//15
f 5//16 4//16 32//16
f 25//17 24//17 32//17
f 29//18 28//18 33//18
f 28//19 34//19 33//19
f 24//20 2//20 33//20
f 2//21 29//21 33//21
f 22//22 7//22 35//22
f 6//23 15//23 36//23
f 15//3 9//3 36//3
f 27//24 6//24 36//24
f 9//25 27//25 36//25
f 18//26 16//26 37//26
f 16//27 13//27 37//27
f 38//28 39//28 40//28
f 20//29 38//29 40//29
f 4//30 22//30 41//30
f 22//31 42//31 41//31
f 42//32 25//32 41//32
f 32//33 4//33 41//33
f 25//34 32//34 41//34
f 12//35 43//35 44//35
f 14//2 12//2 44//2
f 43//36 17//36 44//36
f 13//37 8//37 45//37
f 8//38 31//38 45//38
f 19//39 46//39 47//39
f 7//40 48//40 47//40
f 48//41 49//41 47//41
f 35//42 7//42 47//42
f 46//43 35//43 47//43
f 43//44 12//44 50//44
f 12//45 17//45 50//45
f 17//46 43//46 50//46
f 9//47 16//47 51//47
f 39//48 38//48 52//48
f 37//49 13//49 52//49
f 13//50 45//50 52//50
f 45//51 39//51 52//51
f 12//52 5//52 53//52
f 28//53 12//53 53//53
f 5//54 34//54 53//54
f 34//55 28//55 53//55
f 11//56 9//56 54//56
f 49//57 48//57 54//57
f 9//58 51//58 54//58
f 51//59 49//59 54//59
f 31//60 29//60 1//60
f 29//61 2//61 1//61
f 39//62 45//62 1//62
f 45//63 31//63 1//63
f 46//64 19//64 55//64
f 19//65 20//65 55//65
f 26//66 46//66 55//66
f 23//67 26//67 55//67
f 40//68 23//68 55//68
f 20//69 40//69 55//69
f 42//70 22//70 56//70
f 25//71 42//71 56//71
f 46//72 26//72 56//72
f 26//73 25//73 56//73
f 22//74 35//74 56//74
f 35//75 46//75 56//75
f 10//76 14//76 57//76
f 17//3 10//3 57//3
f 14//77 44//77 57//77
f 44//78 17//78 57//78
f 20//79 18//79 58//79
f 38//80 20//80 58//80
f 18//81 37//81 58//81
f 52//82 38//82 58//82
f 37//83 52//83 58//83
f 34//84 5//84 59//84
f 5//85 32//85 59//85
f 32//86 24//86 59//86
f 33//87 34//87 59//87
f 24//88 33//88 59//88
f 12//89 28//89 60//89
f 8//90 17//90 60//90
f 17//91 12//91 60//91
f 30//92 8//92 60//92
f 28//93 30//93 60//93
f 7//94 11//94 61//94
f 48//95 7//95 61//95
f 11//96 54//96 61//96
f 54//97 48//97 61//97
f 10//3 15//3 62//3
f 21//98 10//98 62//98
f 21//99 62//99 63//99
f 15//100 6//100 63//100
f 6//2 21//2 63//2
f 62//101 15//101 63//101
f 16//102 19//102 64//102
f 19//103 47//103 64//103
f 47//104 49//104 64//104
f 49//105 51//105 64//105
f 51//106 16//106 64//106
f 24//107 23//107 3//107
f 2//108 24//108 3//108
f 23//109 40//109 3//109
f 40//110 39//110 3//110
f 39//111 1//111 3//111
