# Blender v2.83.21 Release Candidate OBJ File: ''
# www.blender.org
mtllib textured_11.mtl
o convex_11.011
v 0.024644 0.036975 -0.069956
v 0.041261 0.050820 -0.056103
v 0.028798 0.036975 -0.069956
v 0.041261 0.042514 -0.061644
v 0.041261 0.049436 -0.031183
v 0.041261 0.035589 -0.040880
v 0.024644 0.035589 -0.069956
v 0.026030 0.035589 -0.045036
v 0.039875 0.049436 -0.031183
v 0.039875 0.052206 -0.053333
v 0.041261 0.035589 -0.064411
v 0.026030 0.036975 -0.045036
v 0.039875 0.046666 -0.031183
vn 0.0000 0.7073 -0.7069
vn 1.0000 0.0000 0.0000
vn -0.0000 -1.0000 0.0000
vn 0.0000 0.9923 0.1241
vn -0.7073 0.0000 0.7069
vn -0.9985 0.0000 0.0555
vn -0.7131 0.6956 0.0870
vn -0.7283 0.6841 0.0405
vn 0.7427 0.6685 0.0371
vn -0.2393 0.8151 -0.5276
vn 0.0000 0.0000 1.0000
vn 0.7536 -0.3771 0.5384
vn -0.1979 -0.6596 0.7251
vn 0.4137 0.3378 -0.8454
vn 0.2296 -0.6883 -0.6882
vn 0.0000 0.0000 -1.0000
vn 0.2945 0.5303 -0.7950
usemtl Default_OBJ.011
s off
f 1//1 2//1 3//1
f 4//2 5//2 6//2
f 7//3 6//3 8//3
f 9//4 5//4 10//4
f 4//2 6//2 11//2
f 6//3 7//3 11//3
f 8//5 9//5 12//5
f 7//6 8//6 12//6
f 9//7 10//7 12//7
f 12//8 10//8 1//8
f 7//6 12//6 1//6
f 5//2 4//2 2//2
f 10//9 5//9 2//9
f 1//10 10//10 2//10
f 5//11 9//11 13//11
f 6//12 5//12 13//12
f 9//5 8//5 13//5
f 8//13 6//13 13//13
f 4//14 11//14 3//14
f 11//15 7//15 3//15
f 7//16 1//16 3//16
f 2//17 4//17 3//17
