# Blender v2.83.21 Release Candidate OBJ File: ''
# www.blender.org
mtllib textured_0.mtl
o convex_0
v -0.068127 -0.021170 -0.136415
v -0.075056 -0.028104 0.015880
v -0.077828 -0.017017 0.046350
v 0.021874 0.024509 -0.143335
v 0.021874 0.041120 0.050517
v 0.021874 -0.066874 0.050517
v -0.076442 -0.026719 0.050517
v 0.021874 -0.055800 -0.139168
v -0.036282 0.048041 0.050517
v -0.057050 -0.061325 0.050517
v -0.073670 0.012039 0.050517
v 0.021874 -0.041946 -0.147502
v 0.008026 0.036967 -0.136396
v -0.003051 0.030046 -0.147502
v -0.055664 -0.030872 -0.147502
v -0.016900 -0.076576 0.028324
v -0.009980 -0.076576 0.028324
v -0.029353 -0.075167 0.050517
v -0.055664 0.036954 0.046350
v 0.008026 -0.073795 0.050517
v -0.023829 0.050822 0.050517
v 0.001097 0.049425 0.035263
v -0.009980 0.041120 -0.135020
v -0.023829 0.039735 -0.139168
v -0.033510 -0.065490 -0.136396
v -0.019671 -0.064093 -0.144731
v -0.022443 -0.068246 -0.136396
v -0.044587 -0.068258 0.011712
v -0.066751 -0.003188 -0.140563
v -0.057050 0.030033 -0.032598
v -0.058436 0.018960 -0.135020
v -0.065365 0.025893 0.031115
v 0.020489 0.030046 -0.135020
v 0.014945 -0.064093 -0.090709
v 0.002482 -0.066874 -0.133643
v -0.039054 -0.051635 -0.147502
v -0.050131 0.021728 -0.144731
v -0.054278 0.006502 -0.147502
v 0.016331 0.043888 0.031095
v -0.068127 0.006502 -0.087937
v -0.076442 0.000965 0.035263
v -0.052902 -0.053019 -0.136396
v -0.044587 -0.059953 -0.136396
v -0.016900 0.050822 0.032491
v 0.021874 0.014807 -0.147502
v -0.005823 -0.068246 -0.137791
v -0.063979 -0.054416 0.049122
v -0.069513 -0.044714 0.033887
v -0.058436 -0.046098 -0.137791
v -0.065365 -0.033640 -0.133643
v 0.003868 -0.055788 -0.147502
v -0.047359 0.042504 0.038035
v -0.069513 -0.005969 -0.112864
v -0.076442 -0.010121 0.011712
v -0.032124 0.038351 -0.135020
v -0.041816 0.034199 -0.132248
v -0.029353 -0.073795 0.004792
v -0.000289 -0.075167 0.021404
v -0.062593 0.012039 -0.136396
v -0.047359 0.030033 -0.136396
v 0.008026 0.048041 0.050517
v 0.010788 -0.072398 0.031095
v -0.029353 0.028662 -0.147502
v -0.029353 0.049425 0.033887
vn -0.9926 -0.1103 -0.0502
vn 1.0000 -0.0000 0.0000
vn -0.0000 -0.0000 1.0000
vn 0.2652 0.6771 -0.6864
vn 0.0000 0.0000 -1.0000
vn 0.0000 -0.9980 0.0634
vn -0.4209 0.4371 0.7948
vn 0.0365 -0.9948 0.0950
vn 0.2198 0.9736 -0.0618
vn 0.1098 0.7730 -0.6248
vn 0.1321 0.7767 -0.6158
vn -0.2105 -0.8453 -0.4912
vn -0.4470 -0.8944 0.0162
vn -0.7062 -0.1074 -0.6998
vn -0.7673 0.6386 -0.0587
vn -0.7170 0.6954 -0.0484
vn -0.8015 0.5926 0.0801
vn 0.9609 0.2759 -0.0236
vn 0.4738 0.7673 -0.4321
vn 0.6186 -0.7844 -0.0458
vn 0.4766 -0.8753 -0.0817
vn -0.6318 0.3020 -0.7139
vn -0.4970 0.0184 -0.8676
vn 0.5875 0.8075 -0.0526
vn 0.4897 0.8698 -0.0602
vn -0.9503 0.3072 -0.0503
vn -0.6397 -0.7671 -0.0483
vn -0.3336 -0.6674 -0.6658
vn -0.5895 -0.8065 -0.0452
vn -0.4466 -0.8934 -0.0501
vn -0.3336 -0.6672 -0.6660
vn -0.4774 -0.5725 -0.6666
vn 0.0731 0.9969 0.0281
vn 0.0856 0.9949 -0.0541
vn -0.0812 0.9948 -0.0610
vn 0.2346 0.3836 -0.8932
vn 0.0000 -0.9987 -0.0501
vn 0.3522 -0.8313 -0.4301
vn -0.0042 -0.9987 -0.0504
vn -0.0383 -0.8893 -0.4558
vn -0.4043 -0.2266 0.8861
vn -0.7005 -0.7121 -0.0472
vn -0.9086 -0.4122 0.0675
vn -0.8323 -0.5521 -0.0493
vn -0.8801 -0.4719 -0.0530
vn -0.8193 -0.2913 -0.4939
vn -0.7461 -0.2561 -0.6146
vn -0.4957 -0.5344 -0.6847
vn -0.4993 -0.3995 -0.7688
vn -0.7750 -0.6299 -0.0510
vn -0.9402 -0.3398 -0.0240
vn -0.9311 -0.3616 -0.0470
vn -0.9723 -0.2275 -0.0546
vn 0.3684 -0.4792 -0.7966
vn -0.0245 -0.2532 -0.9671
vn 0.1554 -0.6797 -0.7169
vn 0.2916 -0.7188 -0.6311
vn -0.5064 0.8596 0.0680
vn -0.9941 0.0545 -0.0937
vn -0.9984 -0.0048 -0.0557
vn -0.9657 0.2497 -0.0712
vn -0.9926 0.1095 -0.0516
vn -0.9739 0.2199 -0.0559
vn -0.3945 0.9171 -0.0567
vn -0.4070 0.9116 -0.0577
vn -0.1643 -0.9860 -0.0296
vn -0.1350 -0.9898 -0.0455
vn -0.2413 -0.9692 -0.0499
vn -0.3590 -0.9323 -0.0443
vn -0.3527 -0.9353 -0.0281
vn 0.1471 -0.9891 0.0046
vn 0.1108 -0.9927 -0.0470
vn 0.1866 -0.9812 -0.0491
vn -0.6957 0.3601 -0.6216
vn -0.7159 0.5222 -0.4634
vn -0.8508 0.5224 -0.0573
vn -0.8873 0.4582 -0.0526
vn -0.9563 0.2822 -0.0770
vn -0.9000 0.4327 -0.0533
vn -0.3656 0.7173 -0.5931
vn -0.7095 0.7016 -0.0662
vn -0.6729 0.6237 -0.3977
vn -0.6190 0.7832 -0.0578
vn -0.5714 0.8186 -0.0585
vn -0.5938 0.8026 -0.0574
vn -0.3798 0.7784 -0.4999
vn -0.4430 0.8557 -0.2674
vn 0.3130 0.9481 -0.0562
vn 0.0869 0.9949 0.0508
vn 0.4471 0.8945 -0.0001
vn 0.3394 0.9390 -0.0556
vn 0.4471 -0.8945 -0.0008
vn 0.5031 -0.8632 -0.0417
vn 0.3788 -0.9241 -0.0501
vn 0.2680 -0.9629 -0.0312
vn 0.2802 -0.9588 -0.0463
vn -0.3125 0.6658 -0.6775
vn -0.0322 0.6112 -0.7908
vn -0.2033 0.2286 -0.9521
vn -0.2179 0.9759 -0.0096
vn -0.1178 0.9913 -0.0593
vn -0.1163 0.9922 -0.0447
vn -0.1939 0.9791 -0.0610
vn -0.3244 0.9442 -0.0566
vn -0.8929 0.0639 0.4457
vn -0.9969 -0.0587 -0.0516
vn -0.9879 0.1291 0.0858
vn -0.9978 0.0596 -0.0281
vn -0.9873 -0.1553 -0.0333
usemtl Default_OBJ
s off
f 1//1 2//1 3//1
f 4//2 5//2 6//2
f 5//3 7//3 6//3
f 4//2 6//2 8//2
f 7//3 5//3 9//3
f 6//3 7//3 10//3
f 7//3 9//3 11//3
f 4//2 8//2 12//2
f 13//4 4//4 14//4
f 12//5 15//5 14//5
f 16//6 17//6 18//6
f 6//3 10//3 18//3
f 11//7 9//7 19//7
f 18//8 17//8 20//8
f 6//3 18//3 20//3
f 9//3 5//3 21//3
f 22//9 13//9 23//9
f 14//10 24//10 23//10
f 13//11 14//11 23//11
f 25//12 26//12 27//12
f 18//13 10//13 28//13
f 29//14 15//14 1//14
f 30//15 31//15 32//15
f 19//16 30//16 32//16
f 11//17 19//17 32//17
f 5//18 4//18 33//18
f 4//19 13//19 33//19
f 8//20 6//20 34//20
f 35//21 8//21 34//21
f 15//5 12//5 36//5
f 29//22 37//22 38//22
f 15//23 29//23 38//23
f 14//5 15//5 38//5
f 5//24 33//24 39//24
f 33//25 13//25 39//25
f 11//26 40//26 41//26
f 10//27 42//27 43//27
f 26//28 25//28 43//28
f 28//29 10//29 43//29
f 25//30 28//30 43//30
f 36//31 26//31 43//31
f 42//32 36//32 43//32
f 21//33 22//33 44//33
f 22//34 23//34 44//34
f 23//35 24//35 44//35
f 4//2 12//2 45//2
f 14//36 4//36 45//36
f 12//5 14//5 45//5
f 17//37 16//37 46//37
f 8//38 35//38 46//38
f 16//39 27//39 46//39
f 27//40 26//40 46//40
f 10//41 7//41 47//41
f 42//42 10//42 47//42
f 7//43 48//43 47//43
f 47//44 48//44 49//44
f 48//45 50//45 49//45
f 50//46 1//46 49//46
f 1//47 15//47 49//47
f 36//48 42//48 49//48
f 15//49 36//49 49//49
f 42//50 47//50 49//50
f 48//51 7//51 2//51
f 50//52 48//52 2//52
f 1//53 50//53 2//53
f 12//54 8//54 51//54
f 26//55 36//55 51//55
f 36//5 12//5 51//5
f 46//56 26//56 51//56
f 8//57 46//57 51//57
f 19//58 9//58 52//58
f 29//59 1//59 53//59
f 1//60 54//60 53//60
f 40//61 29//61 53//61
f 54//62 41//62 53//62
f 41//63 40//63 53//63
f 52//64 9//64 55//64
f 56//65 52//65 55//65
f 16//66 18//66 57//66
f 27//67 16//67 57//67
f 25//68 27//68 57//68
f 28//69 25//69 57//69
f 18//70 28//70 57//70
f 20//71 17//71 58//71
f 17//72 46//72 58//72
f 46//73 35//73 58//73
f 37//74 29//74 59//74
f 31//75 37//75 59//75
f 32//76 31//76 59//76
f 11//77 32//77 59//77
f 29//78 40//78 59//78
f 40//79 11//79 59//79
f 24//80 37//80 60//80
f 31//81 30//81 60//81
f 37//82 31//82 60//82
f 30//83 19//83 60//83
f 52//84 56//84 60//84
f 19//85 52//85 60//85
f 55//86 24//86 60//86
f 56//87 55//87 60//87
f 13//88 22//88 61//88
f 21//3 5//3 61//3
f 22//89 21//89 61//89
f 5//90 39//90 61//90
f 39//91 13//91 61//91
f 6//92 20//92 62//92
f 34//93 6//93 62//93
f 35//94 34//94 62//94
f 20//95 58//95 62//95
f 58//96 35//96 62//96
f 37//97 24//97 63//97
f 24//98 14//98 63//98
f 38//99 37//99 63//99
f 14//5 38//5 63//5
f 9//100 21//100 64//100
f 44//101 24//101 64//101
f 21//102 44//102 64//102
f 24//103 55//103 64//103
f 55//104 9//104 64//104
f 7//105 11//105 3//105
f 54//106 1//106 3//106
f 11//107 41//107 3//107
f 41//108 54//108 3//108
f 2//109 7//109 3//109
