# Blender v2.83.21 Release Candidate OBJ File: ''
# www.blender.org
mtllib textured_5.mtl
o convex_5.005
v 0.003871 0.034203 0.090676
v 0.010792 0.024503 0.092061
v 0.013561 0.028660 0.089291
v -0.045973 -0.054412 0.089291
v -0.047363 -0.053026 0.089291
v -0.009977 -0.064113 0.089291
v -0.014130 0.035589 0.089291
v 0.016335 0.021731 0.089291
v -0.009977 -0.064113 0.090676
v -0.047363 -0.047493 0.090676
v -0.001672 0.000963 0.096214
v -0.025197 -0.032258 0.096214
v -0.009977 -0.030872 0.096214
v 0.016335 0.021731 0.090676
v -0.023813 -0.014262 0.096214
v -0.014130 0.035589 0.090676
v -0.014130 -0.046107 0.094829
v -0.026581 -0.064113 0.090676
v -0.034893 -0.055798 0.092061
v 0.003871 0.003734 0.094829
v -0.033515 -0.039188 0.094829
v -0.000288 0.023126 0.093444
v -0.014130 0.016197 0.094829
v -0.019660 -0.003185 0.096214
v -0.047363 -0.053026 0.090676
vn 0.3309 0.3606 0.8720
vn 0.0000 0.0000 -1.0000
vn 0.9561 -0.2931 0.0000
vn -0.5435 0.2038 -0.8143
vn 0.0000 0.0000 1.0000
vn -0.9285 0.3714 0.0000
vn 0.0085 -0.0928 0.9956
vn 0.2642 -0.1585 0.9514
vn 0.0768 0.9970 0.0000
vn -0.0794 -0.2947 -0.9523
vn 0.0000 -1.0000 0.0000
vn 0.0000 -0.2247 0.9744
vn -0.0371 -0.2002 0.9791
vn 0.2144 0.0585 0.9750
vn 0.2755 -0.0719 0.9586
vn 0.4539 -0.1464 0.8790
vn 0.2616 0.0413 0.9643
vn 0.5068 -0.1554 0.8479
vn -0.1751 0.0135 0.9845
vn -0.3275 0.0752 0.9418
vn -0.0494 -0.1384 0.9891
vn -0.0569 -0.1595 0.9856
vn 0.1087 0.1166 0.9872
vn 0.0384 0.1216 0.9918
vn -0.0070 0.2094 0.9778
vn 0.0958 0.2073 0.9736
vn 0.0182 0.2360 0.9716
vn -0.0176 0.0763 0.9969
vn -0.4406 0.1652 0.8824
vn -0.4763 0.1905 0.8584
vn -0.4393 0.1881 0.8784
vn -0.7061 -0.7081 0.0000
vn -1.0000 0.0000 0.0000
vn -0.4354 -0.8162 0.3798
vn -0.1765 -0.3309 0.9270
vn -0.2873 0.0000 0.9579
vn -0.1423 -0.1512 0.9782
vn 0.3790 0.3249 0.8665
vn 0.9284 0.3717 0.0000
vn 0.1011 0.4038 -0.9092
usemtl Default_OBJ.005
s off
f 1//1 2//1 3//1
f 4//2 5//2 6//2
f 6//2 5//2 7//2
f 6//2 7//2 8//2
f 6//3 8//3 9//3
f 7//4 5//4 10//4
f 11//5 12//5 13//5
f 9//3 8//3 14//3
f 12//5 11//5 15//5
f 7//6 10//6 16//6
f 13//7 12//7 17//7
f 9//8 13//8 17//8
f 7//9 16//9 1//9
f 4//10 6//10 18//10
f 6//11 9//11 18//11
f 9//12 17//12 18//12
f 17//13 19//13 18//13
f 2//14 11//14 20//14
f 11//15 13//15 20//15
f 13//16 9//16 20//16
f 14//17 2//17 20//17
f 9//18 14//18 20//18
f 12//19 15//19 21//19
f 15//20 10//20 21//20
f 17//21 12//21 21//21
f 19//22 17//22 21//22
f 11//23 2//23 22//23
f 23//24 11//24 22//24
f 16//25 23//25 22//25
f 2//26 1//26 22//26
f 1//27 16//27 22//27
f 11//28 23//28 24//28
f 15//5 11//5 24//5
f 10//29 15//29 24//29
f 16//30 10//30 24//30
f 23//31 16//31 24//31
f 5//32 4//32 25//32
f 10//33 5//33 25//33
f 4//34 18//34 25//34
f 18//35 19//35 25//35
f 21//36 10//36 25//36
f 19//37 21//37 25//37
f 8//2 7//2 3//2
f 2//38 14//38 3//38
f 14//39 8//39 3//39
f 7//40 1//40 3//40
