# Blender v2.83.21 Release Candidate OBJ File: ''
# www.blender.org
mtllib textured_1.mtl
o convex_1.001
v 0.038491 -0.019805 -0.143331
v 0.039875 -0.005960 -0.140549
v 0.041260 -0.019805 -0.136401
v 0.021874 0.018972 -0.144698
v 0.021878 -0.069652 0.085096
v 0.021874 0.018972 0.086486
v 0.045412 0.018972 0.087900
v 0.031570 0.018972 -0.132229
v 0.023262 -0.069652 0.085096
v 0.021878 -0.069652 0.089244
v 0.049568 -0.037797 0.087877
v 0.053724 -0.022573 0.085119
v 0.052336 -0.018417 0.089291
v 0.021878 -0.054410 -0.139159
v 0.021878 -0.040565 -0.147479
v 0.052336 -0.029487 0.083728
v 0.023262 0.012041 -0.147479
v 0.030183 -0.025340 -0.147479
v 0.031570 -0.040565 -0.143307
v 0.027414 -0.066867 0.085096
v 0.037107 -0.058565 0.087877
v 0.028802 0.018972 -0.141940
v 0.038491 0.003730 -0.137791
v 0.035723 -0.001805 -0.144698
v 0.037110 0.009273 -0.132252
v 0.041260 -0.007348 -0.135033
v 0.039875 0.000963 -0.133643
v 0.053724 -0.001805 0.083728
v 0.053724 -0.007348 0.078189
v 0.046800 0.018972 0.082338
v 0.048184 0.016196 0.082338
v 0.039875 -0.025340 -0.139159
v 0.041260 -0.022573 -0.132252
v 0.039875 -0.029487 -0.132252
v 0.041260 -0.033642 -0.089330
v 0.032954 -0.050255 -0.075470
v 0.027414 -0.055798 -0.082400
v 0.045412 -0.046099 0.089291
v 0.044028 -0.048875 0.083728
v 0.028802 0.017575 0.089244
v 0.049568 -0.037797 0.083728
v 0.038491 -0.040565 -0.086549
v 0.023262 -0.055798 -0.132229
v 0.027414 -0.051643 -0.133620
v 0.053724 -0.001805 0.087877
v 0.052336 0.005118 0.083728
v 0.034339 -0.041944 -0.136401
v 0.034339 -0.047487 -0.086549
v 0.050952 0.009265 0.082338
v 0.023262 -0.053022 -0.141940
v 0.034339 0.014808 -0.130862
v 0.041260 -0.053022 0.083728
v 0.023262 0.018972 0.087877
v 0.044028 -0.017038 -0.092111
v 0.053724 -0.015650 0.078189
v 0.023262 -0.058565 -0.093478
v 0.044028 -0.012883 -0.093455
v 0.037110 -0.036409 -0.136401
v 0.030183 -0.001805 -0.147479
v 0.045412 -0.025340 -0.053314
v 0.035723 -0.059953 0.086486
v 0.042644 -0.004581 -0.107315
v 0.021878 -0.058565 -0.093478
v 0.048184 0.016196 0.087877
vn 0.9285 -0.0183 -0.3710
vn -1.0000 -0.0000 -0.0000
vn -0.0000 1.0000 0.0000
vn 0.0000 -1.0000 -0.0000
vn 0.8788 -0.1584 0.4501
vn -1.0000 -0.0001 -0.0001
vn 0.9566 -0.2284 0.1807
vn -0.8705 0.0229 -0.4916
vn -0.0000 0.0000 -1.0000
vn 0.3865 -0.2108 -0.8979
vn 0.5477 -0.8165 0.1827
vn 0.5832 -0.7688 0.2622
vn 0.7570 0.3272 -0.5656
vn 0.8457 0.4676 -0.2571
vn 0.8427 0.4819 -0.2402
vn 0.3377 0.4080 -0.8482
vn 0.4880 0.2726 -0.8292
vn 0.9622 0.1926 -0.1926
vn 0.9398 0.3285 -0.0944
vn 1.0000 0.0000 0.0000
vn 0.8933 0.4454 -0.0605
vn 0.9738 -0.1951 -0.1171
vn 0.9657 -0.2537 -0.0557
vn 0.7386 -0.6720 -0.0530
vn 0.3023 -0.3039 0.9035
vn 0.8943 -0.4475 0.0008
vn -0.0022 0.0002 1.0000
vn -0.0014 0.0004 1.0000
vn 0.5568 -0.1393 0.8189
vn 0.7641 -0.2554 -0.5924
vn 0.5321 -0.1783 -0.8277
vn 0.8944 -0.4473 0.0000
vn 0.9474 -0.3156 -0.0531
vn 0.9488 -0.3160 0.0000
vn 0.9196 -0.3893 -0.0535
vn 0.8932 -0.4467 -0.0508
vn 0.6964 -0.7153 -0.0580
vn 0.7395 -0.6710 -0.0544
vn 0.9327 -0.0475 0.3576
vn 0.9805 0.1966 0.0000
vn 0.8562 -0.5135 -0.0571
vn 0.8564 -0.5137 -0.0529
vn 0.8031 -0.5923 -0.0659
vn 0.7777 -0.6259 -0.0592
vn 0.9270 0.3702 -0.0598
vn 0.9527 0.2977 -0.0603
vn 0.9440 0.3243 -0.0609
vn 0.3809 -0.8890 -0.2541
vn -0.7697 -0.3288 -0.5472
vn 0.7399 -0.5378 -0.4041
vn 0.3715 -0.3425 -0.8630
vn 0.7450 -0.6096 -0.2708
vn 0.6564 -0.7254 -0.2073
vn 0.8429 0.4820 -0.2391
vn 0.8401 0.5391 -0.0596
vn 0.8864 0.4590 -0.0608
vn 0.7803 -0.6232 -0.0515
vn 0.8254 -0.5589 0.0795
vn 0.8297 -0.5538 0.0699
vn 0.8306 -0.5544 -0.0518
vn 0.7942 -0.6054 -0.0520
vn -0.7077 0.0219 0.7062
vn -0.0007 0.6979 0.7162
vn -0.2351 0.0187 0.9718
vn 0.9968 -0.0564 -0.0563
vn 0.0000 -0.9981 -0.0620
vn 0.5563 -0.8294 -0.0515
vn 0.6497 -0.7582 -0.0541
vn 0.6436 -0.7637 -0.0505
vn 0.9965 0.0604 -0.0583
vn 0.9966 0.0581 -0.0582
vn 0.9982 -0.0183 -0.0567
vn 0.9984 0.0000 -0.0564
vn 0.8161 -0.4086 -0.4088
vn 0.8236 -0.3221 -0.4669
vn 0.9187 -0.3907 -0.0580
vn 0.8925 -0.4468 -0.0620
vn 0.9460 -0.2779 -0.1668
vn 0.9392 -0.3374 -0.0630
vn 0.4378 0.2188 -0.8721
vn 0.4467 0.0000 -0.8947
vn 0.4486 0.0011 -0.8937
vn 0.9894 -0.1338 -0.0567
vn 0.9810 -0.1858 -0.0552
vn 0.9788 -0.1961 -0.0584
vn 0.9715 -0.2302 -0.0561
vn 0.9621 0.1924 -0.1932
vn 0.8016 0.2668 -0.5350
vn 0.7358 0.0619 -0.6743
vn 0.6160 -0.7719 0.1574
vn 0.7331 -0.6781 -0.0527
vn 0.6438 -0.7635 -0.0505
vn 0.9938 0.0940 -0.0590
vn 0.9787 0.1962 -0.0596
vn 0.9824 0.1748 -0.0665
vn 0.9772 0.2036 -0.0599
vn -1.0000 -0.0001 -0.0000
vn -0.4787 -0.8744 -0.0795
vn 0.0000 -0.9975 -0.0712
vn 0.0749 0.0666 0.9950
vn 0.0738 0.0495 0.9960
vn 0.6975 0.6951 0.1741
vn 0.8949 0.4462 0.0000
vn 0.2121 0.0653 0.9751
vn 0.9421 0.2899 0.1686
vn 0.9287 0.3709 0.0000
vn 0.9415 0.3325 0.0545
vn 0.9949 -0.0827 -0.0570
vn 0.9947 -0.0855 -0.0570
vn 0.9755 -0.1832 -0.1222
vn 0.9276 -0.0474 -0.3706
vn 0.9978 0.0072 -0.0655
vn 0.9979 -0.0198 -0.0611
vn 0.9711 0.0261 -0.2373
usemtl Default_OBJ.001
s off
f 1//1 2//1 3//1
f 4//2 5//2 6//2
f 7//3 4//3 6//3
f 4//3 7//3 8//3
f 5//4 9//4 10//4
f 6//2 5//2 10//2
f 11//5 12//5 13//5
f 14//6 4//6 15//6
f 12//7 11//7 16//7
f 15//8 4//8 17//8
f 18//9 15//9 17//9
f 15//10 18//10 19//10
f 10//11 9//11 20//11
f 21//12 10//12 20//12
f 4//3 8//3 22//3
f 23//13 24//13 22//13
f 25//14 23//14 22//14
f 8//15 25//15 22//15
f 17//16 4//16 22//16
f 24//17 17//17 22//17
f 26//18 23//18 27//18
f 23//19 25//19 27//19
f 28//20 12//20 29//20
f 8//3 7//3 30//3
f 31//21 25//21 30//21
f 32//22 33//22 34//22
f 16//23 35//23 34//23
f 36//24 21//24 37//24
f 10//25 21//25 38//25
f 39//26 11//26 38//26
f 40//27 10//27 38//27
f 13//28 40//28 38//28
f 11//29 13//29 38//29
f 32//30 19//30 1//30
f 19//31 18//31 1//31
f 11//32 39//32 41//32
f 35//33 16//33 41//33
f 16//34 11//34 41//34
f 42//35 35//35 41//35
f 39//36 42//36 41//36
f 37//37 43//37 44//37
f 36//38 37//38 44//38
f 12//20 28//20 45//20
f 13//39 12//39 45//39
f 28//40 46//40 45//40
f 47//41 42//41 48//41
f 42//42 39//42 48//42
f 44//43 47//43 48//43
f 36//44 44//44 48//44
f 25//45 31//45 49//45
f 46//46 27//46 49//46
f 27//47 25//47 49//47
f 43//48 14//48 50//48
f 14//49 15//49 50//49
f 19//50 47//50 50//50
f 15//51 19//51 50//51
f 47//52 44//52 50//52
f 44//53 43//53 50//53
f 25//54 8//54 51//54
f 8//55 30//55 51//55
f 30//56 25//56 51//56
f 21//57 36//57 52//57
f 38//58 21//58 52//58
f 39//59 38//59 52//59
f 48//60 39//60 52//60
f 36//61 48//61 52//61
f 7//3 6//3 53//3
f 6//62 10//62 53//62
f 40//63 7//63 53//63
f 10//64 40//64 53//64
f 12//65 54//65 55//65
f 29//20 12//20 55//20
f 9//66 5//66 56//66
f 20//67 9//67 56//67
f 43//68 37//68 56//68
f 37//69 20//69 56//69
f 26//70 28//70 57//70
f 28//71 29//71 57//71
f 55//72 54//72 57//72
f 29//73 55//73 57//73
f 47//74 19//74 58//74
f 19//75 32//75 58//75
f 35//76 42//76 58//76
f 42//77 47//77 58//77
f 32//78 34//78 58//78
f 34//79 35//79 58//79
f 18//9 17//9 59//9
f 17//80 24//80 59//80
f 1//81 18//81 59//81
f 24//82 1//82 59//82
f 33//83 12//83 60//83
f 12//84 16//84 60//84
f 34//85 33//85 60//85
f 16//86 34//86 60//86
f 23//87 26//87 2//87
f 24//88 23//88 2//88
f 1//89 24//89 2//89
f 21//90 20//90 61//90
f 37//91 21//91 61//91
f 20//92 37//92 61//92
f 28//93 26//93 62//93
f 46//94 28//94 62//94
f 26//95 27//95 62//95
f 27//96 46//96 62//96
f 5//97 4//97 63//97
f 4//97 14//97 63//97
f 14//98 43//98 63//98
f 56//66 5//66 63//66
f 43//99 56//99 63//99
f 7//100 40//100 64//100
f 40//101 13//101 64//101
f 30//102 7//102 64//102
f 31//103 30//103 64//103
f 13//104 45//104 64//104
f 45//105 46//105 64//105
f 49//106 31//106 64//106
f 46//107 49//107 64//107
f 54//108 12//108 3//108
f 12//109 33//109 3//109
f 33//110 32//110 3//110
f 32//111 1//111 3//111
f 26//112 57//112 3//112
f 57//113 54//113 3//113
f 2//114 26//114 3//114
