# Blender v2.83.21 Release Candidate OBJ File: ''
# www.blender.org
mtllib textured_4.mtl
o convex_4.004
v 0.001095 0.053569 0.085135
v -0.008590 0.054963 0.085135
v -0.011362 0.054963 0.087905
v -0.047363 -0.071023 0.079594
v -0.047363 -0.071023 0.085135
v -0.047363 0.042499 0.050517
v 0.021874 -0.066869 0.050517
v 0.021874 0.041106 0.050517
v 0.021874 -0.069643 0.078208
v 0.021874 0.027262 0.089291
v -0.047363 -0.066869 0.050517
v -0.047363 0.046654 0.087905
v -0.022436 -0.076571 0.050517
v 0.021874 0.045273 0.087905
v 0.021874 -0.069643 0.089291
v -0.004435 -0.079319 0.089291
v -0.004435 0.050808 0.050517
v -0.047363 -0.058560 0.089291
v 0.003867 -0.075178 0.050517
v -0.047363 0.030036 0.089291
v -0.023819 -0.079345 0.089291
v 0.008021 0.048034 0.050517
v 0.012176 -0.075178 0.085135
v -0.033510 0.052189 0.087905
v -0.003053 0.039725 0.089291
v 0.005250 0.052189 0.087905
v -0.025208 0.050808 0.050517
v -0.039054 -0.075178 0.087905
v -0.034893 -0.073797 0.051903
v -0.019664 0.054963 0.086520
v -0.004435 -0.076558 0.050517
v -0.041819 0.049415 0.083746
v 0.013565 0.049415 0.083746
v 0.012176 -0.072404 0.050517
v -0.009979 -0.079319 0.080979
v -0.029356 0.053582 0.085135
v -0.032128 0.049415 0.051903
v -0.030745 -0.077952 0.085135
v 0.003867 -0.077939 0.086520
v -0.044591 -0.069643 0.050517
v 0.017720 0.043880 0.050517
v -0.036282 0.048047 0.050517
vn 0.1410 0.9799 0.1411
vn -1.0000 0.0000 0.0000
vn -0.0000 0.0000 -1.0000
vn 1.0000 0.0000 0.0000
vn 0.0000 0.0000 1.0000
vn 0.4957 -0.8685 -0.0000
vn -0.0332 0.0831 0.9960
vn 0.0383 0.0767 0.9963
vn 0.0361 0.0867 0.9956
vn -0.0158 0.0723 0.9973
vn -0.4473 -0.8944 0.0000
vn -0.4286 -0.2858 0.8571
vn -0.1293 -0.1464 0.9807
vn -0.3812 -0.9211 -0.0794
vn -0.0141 0.9936 -0.1125
vn 0.0000 0.9929 -0.1192
vn -0.5003 0.8605 -0.0956
vn -0.3683 0.9218 0.1210
vn 0.3797 0.9128 0.1504
vn 0.4938 -0.8652 -0.0867
vn 0.4556 -0.8873 -0.0711
vn 0.3158 -0.9458 -0.0758
vn -0.0418 -0.9965 -0.0728
vn 0.0013 -1.0000 -0.0009
vn 0.1059 -0.9919 -0.0706
vn 0.0007 -0.9959 -0.0901
vn 0.2160 0.9700 -0.1119
vn 0.1417 0.9847 -0.1012
vn 0.3159 0.9488 -0.0012
vn 0.3057 0.9478 -0.0904
vn -0.1692 0.9588 0.2283
vn -0.1272 0.9874 -0.0944
vn -0.2162 0.9708 -0.1037
vn -0.3172 0.9484 0.0012
vn -0.1526 -0.9854 -0.0759
vn -0.2263 -0.9696 -0.0930
vn -0.2728 -0.9525 0.1354
vn -0.3382 -0.9381 -0.0751
vn 0.3003 -0.8165 0.4931
vn 0.3474 -0.8705 0.3487
vn 0.3035 -0.9500 -0.0729
vn 0.1407 -0.9876 -0.0703
vn 0.1635 -0.9837 -0.0754
vn -0.7038 -0.7033 -0.1005
vn -0.3828 -0.9204 -0.0802
vn -0.2362 -0.7554 -0.6112
vn 0.5530 0.8281 -0.0923
vn 0.4785 0.8739 -0.0857
vn 0.3916 0.9143 -0.1033
vn -0.2356 0.9451 -0.2266
vn -0.4449 0.8887 -0.1107
vn -0.2823 0.9545 -0.0961
vn -0.3068 0.9475 -0.0901
vn -0.0997 0.7957 0.5974
vn 0.0166 0.0996 0.9949
vn -0.0106 0.0848 0.9963
vn 0.0000 1.0000 0.0000
vn 0.1600 0.9582 0.2373
usemtl Default_OBJ.004
s off
f 1//1 2//1 3//1
f 4//2 5//2 6//2
f 7//3 6//3 8//3
f 9//4 7//4 8//4
f 9//4 8//4 10//4
f 4//2 6//2 11//2
f 6//3 7//3 11//3
f 6//2 5//2 12//2
f 11//3 7//3 13//3
f 10//4 8//4 14//4
f 9//4 10//4 15//4
f 10//5 16//5 15//5
f 8//3 6//3 17//3
f 12//2 5//2 18//2
f 16//5 10//5 18//5
f 13//3 7//3 19//3
f 12//2 18//2 20//2
f 18//5 10//5 20//5
f 16//5 18//5 21//5
f 8//3 17//3 22//3
f 9//6 15//6 23//6
f 12//7 20//7 24//7
f 10//8 14//8 25//8
f 20//5 10//5 25//5
f 14//9 26//9 25//9
f 24//10 20//10 25//10
f 17//3 6//3 27//3
f 5//11 4//11 28//11
f 18//12 5//12 28//12
f 21//13 18//13 28//13
f 4//14 29//14 28//14
f 27//15 30//15 2//15
f 17//16 27//16 2//16
f 13//3 19//3 31//3
f 6//17 12//17 32//17
f 12//18 24//18 32//18
f 26//19 14//19 33//19
f 7//20 9//20 34//20
f 19//3 7//3 34//3
f 9//21 23//21 34//21
f 23//22 19//22 34//22
f 21//23 13//23 35//23
f 16//24 21//24 35//24
f 31//25 16//25 35//25
f 13//26 31//26 35//26
f 22//27 17//27 1//27
f 17//28 2//28 1//28
f 26//29 33//29 1//29
f 33//30 22//30 1//30
f 24//31 30//31 36//31
f 30//32 27//32 36//32
f 27//33 37//33 36//33
f 32//34 24//34 36//34
f 13//35 21//35 38//35
f 29//36 13//36 38//36
f 21//37 28//37 38//37
f 28//38 29//38 38//38
f 15//39 16//39 39//39
f 23//40 15//40 39//40
f 19//41 23//41 39//41
f 16//42 31//42 39//42
f 31//43 19//43 39//43
f 4//44 11//44 40//44
f 11//3 13//3 40//3
f 29//45 4//45 40//45
f 13//46 29//46 40//46
f 14//47 8//47 41//47
f 8//3 22//3 41//3
f 33//48 14//48 41//48
f 22//49 33//49 41//49
f 27//3 6//3 42//3
f 37//50 27//50 42//50
f 6//51 32//51 42//51
f 36//52 37//52 42//52
f 32//53 36//53 42//53
f 30//54 24//54 3//54
f 25//55 26//55 3//55
f 24//56 25//56 3//56
f 2//57 30//57 3//57
f 26//58 1//58 3//58
