# Blender v2.83.21 Release Candidate OBJ File: ''
# www.blender.org
mtllib textured_13.mtl
o convex_13.013
v 0.057881 0.066054 0.013128
v 0.055113 0.063282 -0.021488
v 0.052341 0.064667 -0.009021
v 0.068956 0.050822 0.020053
v 0.068956 0.054975 0.020053
v 0.056494 0.056362 0.020053
v 0.066184 0.048052 -0.022874
v 0.050954 0.061897 -0.022874
v 0.063418 0.054975 -0.022874
v 0.062031 0.048052 -0.020101
v 0.053726 0.066054 0.020053
v 0.050954 0.059129 -0.020101
v 0.068956 0.053592 0.003434
v 0.063418 0.050822 0.015897
v 0.063416 0.060515 0.007590
vn 0.1017 0.9910 -0.0875
vn -0.0000 0.0000 1.0000
vn 0.0000 0.0000 -1.0000
vn 0.0412 -0.9972 0.0617
vn -0.4739 -0.5213 -0.7097
vn 0.5547 0.7626 0.3328
vn -0.5777 -0.5777 -0.5767
vn -0.7063 -0.7063 0.0488
vn -0.9965 0.0588 0.0587
vn -0.9554 -0.2729 0.1130
vn 0.1915 0.3447 -0.9190
vn 1.0000 0.0000 0.0000
vn 0.9622 -0.2687 -0.0448
vn 0.9146 0.3654 -0.1733
vn -0.3572 -0.8036 0.4760
vn -0.0592 -0.9951 0.0789
vn -0.5911 -0.8022 0.0845
vn 0.7073 0.7069 -0.0002
vn 0.6904 0.7118 -0.1294
vn 0.6446 0.7562 -0.1121
vn 0.7637 0.6433 -0.0535
vn 0.7385 0.6634 -0.1206
vn -0.9450 0.3258 0.0295
vn -0.0734 0.9963 -0.0440
vn -0.2621 0.9510 -0.1639
usemtl Default_OBJ.013
s off
f 1//1 2//1 3//1
f 4//2 5//2 6//2
f 7//3 8//3 9//3
f 7//4 4//4 10//4
f 8//5 7//5 10//5
f 6//2 5//2 11//2
f 5//6 1//6 11//6
f 8//7 10//7 12//7
f 10//8 6//8 12//8
f 11//9 8//9 12//9
f 6//10 11//10 12//10
f 9//11 8//11 2//11
f 5//12 4//12 13//12
f 4//13 7//13 13//13
f 7//14 9//14 13//14
f 4//15 6//15 14//15
f 10//16 4//16 14//16
f 6//17 10//17 14//17
f 1//18 5//18 15//18
f 9//19 2//19 15//19
f 2//20 1//20 15//20
f 5//21 13//21 15//21
f 13//22 9//22 15//22
f 8//23 11//23 3//23
f 11//24 1//24 3//24
f 2//25 8//25 3//25
