# Blender v2.83.21 Release Candidate OBJ File: ''
# www.blender.org
mtllib mustard_4.mtl
o convex_0.003
v 0.001409 0.028427 -0.066996
v -0.003745 0.026703 -0.014434
v 0.010890 0.024986 -0.066996
v -0.019266 0.030151 -0.014434
v -0.042527 -0.006029 -0.014434
v 0.023814 -0.034465 -0.014434
v 0.038469 0.004300 -0.014434
v -0.008053 -0.027570 -0.014434
v 0.005717 0.023255 -0.014434
v -0.027882 0.028427 -0.014434
v -0.037353 -0.004306 -0.084234
v -0.037353 -0.002588 -0.084234
v 0.025535 0.009472 -0.084234
v 0.039325 -0.010339 -0.014434
v 0.047950 -0.006898 -0.064406
v 0.043633 -0.005174 -0.082498
v 0.039325 0.005162 -0.076465
v -0.040805 0.008610 -0.014434
v -0.050287 0.006031 -0.054062
v -0.041661 0.022393 -0.042884
v -0.038219 -0.011201 -0.014434
v 0.004861 -0.030156 -0.084234
v -0.037353 0.030151 -0.052347
v -0.010640 0.031019 -0.069571
v -0.033045 -0.018096 -0.076465
v -0.013227 -0.029301 -0.079055
v -0.025295 -0.023267 -0.066128
v -0.049421 -0.000003 -0.073890
v -0.048556 0.006031 -0.079055
v -0.039084 0.028427 -0.077333
v -0.033911 0.024979 -0.083366
v 0.043633 -0.019820 -0.077333
v 0.016064 -0.034465 -0.014434
v 0.002274 -0.034465 -0.065267
v 0.042777 -0.018958 -0.041155
v 0.047085 -0.012063 -0.050625
v -0.025295 0.031019 -0.079923
v -0.008919 0.028427 -0.082498
v 0.033296 -0.024991 -0.014434
v 0.036738 -0.031880 -0.042884
v 0.024680 0.013775 -0.014434
v 0.021227 0.019808 -0.066996
v -0.048556 -0.001727 -0.048042
v -0.032190 -0.014642 -0.083366
v -0.044248 0.021532 -0.069571
v 0.021227 0.018946 -0.080783
v -0.008053 0.024979 -0.084234
v 0.022958 -0.036196 -0.079055
v 0.037603 -0.033604 -0.069571
v 0.034161 -0.035334 -0.053208
v 0.029853 -0.031880 -0.083366
v 0.008304 -0.035327 -0.079923
v 0.000553 0.028427 -0.079055
v -0.011505 -0.030156 -0.066996
v -0.045969 -0.001727 -0.081644
v 0.015198 -0.036196 -0.063552
v 0.046219 -0.004312 -0.045460
v 0.029853 0.013775 -0.079055
v 0.035017 -0.032742 -0.080783
v 0.035882 -0.003450 -0.084234
v -0.033911 0.031019 -0.058380
v 0.039325 -0.031018 -0.054923
v -0.040805 0.027571 -0.054062
v -0.034776 0.020676 -0.014434
vn 0.3405 0.9381 0.0642
vn 0.0000 -0.0000 1.0000
vn 0.0000 0.0000 -1.0000
vn 0.8727 0.4597 -0.1644
vn -0.9679 0.1139 0.2242
vn -0.9163 0.3488 0.1966
vn -0.1953 0.9763 0.0932
vn 0.2005 0.9786 0.0468
vn -0.4972 -0.8655 -0.0602
vn -0.4752 -0.8757 0.0856
vn -0.5912 -0.8056 0.0402
vn -0.9941 0.0836 -0.0689
vn -0.6222 0.3181 -0.7153
vn 0.9674 -0.0842 -0.2389
vn -0.2741 -0.9588 0.0744
vn 0.9331 -0.2893 0.2138
vn 0.9599 -0.2771 -0.0436
vn -0.2563 0.7280 -0.6358
vn -0.0458 0.5433 -0.8383
vn 0.8988 -0.3698 0.2354
vn 0.6846 -0.6852 0.2487
vn 0.8743 -0.4369 0.2116
vn 0.5654 0.8228 0.0573
vn -0.7427 -0.6694 -0.0198
vn -0.9789 -0.2035 0.0192
vn -0.9821 -0.0915 0.1645
vn -0.7672 -0.6390 0.0558
vn -0.7088 -0.7051 0.0193
vn -0.4850 -0.7565 -0.4387
vn -0.0734 -0.1198 -0.9901
vn -0.2526 -0.5590 -0.7898
vn -0.8872 0.3937 -0.2405
vn -0.9503 0.3044 -0.0658
vn 0.1996 0.4802 -0.8542
vn 0.1898 0.4111 -0.8916
vn -0.0335 0.0356 -0.9988
vn -0.0301 0.4435 -0.8958
vn 0.2108 -0.9758 -0.0588
vn 0.5110 -0.8454 0.1553
vn 0.0000 -0.7067 -0.7075
vn -0.2712 -0.9610 -0.0550
vn -0.2251 -0.7080 -0.6694
vn -0.0182 -0.6474 -0.7620
vn 0.2519 0.6755 -0.6930
vn 0.2134 0.9769 -0.0151
vn 0.1036 0.9838 -0.1466
vn 0.1051 0.9515 -0.2892
vn -0.2955 -0.9550 -0.0255
vn -0.3054 -0.9499 0.0668
vn -0.4469 -0.8946 0.0004
vn -0.4420 -0.8940 0.0730
vn -0.2879 0.0000 -0.9577
vn -0.7414 -0.6445 -0.1868
vn -0.2813 0.0653 -0.9574
vn -0.9127 -0.1823 -0.3658
vn -0.4476 0.1452 -0.8824
vn -0.6523 -0.6423 -0.4023
vn -0.3464 -0.2490 -0.9044
vn 0.0000 -0.9994 0.0352
vn -0.1375 -0.9898 0.0373
vn 0.0357 -0.9992 0.0179
vn 0.0290 -0.9991 0.0301
vn -0.0575 -0.9979 -0.0288
vn -0.1332 -0.9911 0.0035
vn 0.9722 0.0568 0.2271
vn 0.7770 0.6291 0.0195
vn 0.8155 0.5787 -0.0045
vn 0.9950 0.0557 0.0833
vn 0.9770 -0.0314 0.2110
vn 0.4385 0.4769 -0.7618
vn 0.4499 0.4657 -0.7620
vn 0.6697 0.7424 0.0196
vn 0.6525 0.5660 -0.5039
vn 0.6058 0.7948 0.0358
vn 0.5213 0.8517 -0.0533
vn 0.2553 -0.9577 -0.1325
vn 0.4147 -0.1850 -0.8909
vn 0.1499 -0.8083 -0.5694
vn 0.8368 -0.4963 -0.2312
vn 0.6591 -0.2501 -0.7092
vn 0.2025 -0.0728 -0.9766
vn 0.2573 0.2060 -0.9441
vn 0.0321 -0.0373 -0.9988
vn 0.0082 0.9998 0.0170
vn -0.3154 0.9480 -0.0436
vn -0.1358 0.9886 0.0648
vn -0.0000 1.0000 0.0000
vn -0.1985 0.9769 -0.0794
vn 0.8860 -0.4354 0.1592
vn 0.9086 -0.4163 -0.0333
vn 0.9085 -0.3997 0.1223
vn 0.9262 -0.3769 -0.0103
vn 0.6513 -0.7566 0.0570
vn 0.6557 -0.7499 0.0872
vn 0.2166 0.9748 0.0532
vn -0.9091 0.4002 0.1158
vn -0.5940 0.8043 -0.0143
vn -0.6475 0.7366 0.1953
vn -0.9143 0.4025 0.0463
vn -0.8207 0.5699 -0.0397
vn -0.8692 0.4343 0.2365
vn -0.7649 0.6048 0.2216
vn -0.7283 0.6478 0.2235
vn 0.4472 0.8927 -0.0558
vn 0.4460 0.8921 0.0733
vn 0.4467 0.8917 0.0730
vn 0.4088 0.9080 -0.0913
vn 0.3411 0.9397 -0.0242
vn 0.3417 0.9376 0.0645
usemtl Default_OBJ.003
s off
f 1//1 2//1 3//1
f 4//2 5//2 6//2
f 4//2 6//2 7//2
f 6//2 5//2 8//2
f 4//2 7//2 9//2
f 5//2 4//2 10//2
f 11//3 12//3 13//3
f 7//2 6//2 14//2
f 15//4 16//4 17//4
f 5//2 10//2 18//2
f 19//5 5//5 18//5
f 20//6 19//6 18//6
f 8//2 5//2 21//2
f 11//3 13//3 22//3
f 10//7 4//7 23//7
f 24//8 4//8 1//8
f 25//9 26//9 27//9
f 8//10 21//10 27//10
f 21//11 25//11 27//11
f 28//12 19//12 29//12
f 30//13 31//13 29//13
f 16//14 15//14 32//14
f 6//2 8//2 33//2
f 8//15 34//15 33//15
f 14//16 35//16 36//16
f 32//17 15//17 36//17
f 31//18 30//18 37//18
f 38//19 31//19 37//19
f 35//20 14//20 39//20
f 14//2 6//2 39//2
f 6//21 40//21 39//21
f 40//22 35//22 39//22
f 9//2 7//2 41//2
f 7//23 42//23 41//23
f 28//24 25//24 43//24
f 19//25 28//25 43//25
f 5//26 19//26 43//26
f 21//27 5//27 43//27
f 25//28 21//28 43//28
f 26//29 25//29 44//29
f 11//30 22//30 44//30
f 22//31 26//31 44//31
f 30//32 29//32 45//32
f 29//33 19//33 45//33
f 38//34 46//34 47//34
f 13//3 12//3 47//3
f 46//35 13//35 47//35
f 12//36 31//36 47//36
f 31//37 38//37 47//37
f 48//38 49//38 50//38
f 40//39 6//39 50//39
f 51//40 48//40 52//40
f 34//41 26//41 52//41
f 26//42 22//42 52//42
f 22//43 51//43 52//43
f 46//44 38//44 53//44
f 24//45 1//45 53//45
f 37//46 24//46 53//46
f 38//47 37//47 53//47
f 26//48 34//48 54//48
f 34//49 8//49 54//49
f 27//50 26//50 54//50
f 8//51 27//51 54//51
f 12//52 11//52 55//52
f 25//53 28//53 55//53
f 31//54 12//54 55//54
f 28//55 29//55 55//55
f 29//56 31//56 55//56
f 44//57 25//57 55//57
f 11//58 44//58 55//58
f 6//59 33//59 56//59
f 33//60 34//60 56//60
f 48//61 50//61 56//61
f 50//62 6//62 56//62
f 52//63 48//63 56//63
f 34//64 52//64 56//64
f 7//65 14//65 57//65
f 17//66 7//66 57//66
f 15//67 17//67 57//67
f 36//68 15//68 57//68
f 14//69 36//69 57//69
f 13//70 46//70 58//70
f 16//71 13//71 58//71
f 7//72 17//72 58//72
f 17//73 16//73 58//73
f 42//74 7//74 58//74
f 46//75 42//75 58//75
f 49//76 48//76 59//76
f 51//77 16//77 59//77
f 48//78 51//78 59//78
f 32//79 49//79 59//79
f 16//80 32//80 59//80
f 16//81 51//81 60//81
f 13//82 16//82 60//82
f 51//83 22//83 60//83
f 22//3 13//3 60//3
f 4//84 24//84 61//84
f 30//85 23//85 61//85
f 23//86 4//86 61//86
f 24//87 37//87 61//87
f 37//88 30//88 61//88
f 35//89 40//89 62//89
f 49//90 32//90 62//90
f 36//91 35//91 62//91
f 32//92 36//92 62//92
f 50//93 49//93 62//93
f 40//94 50//94 62//94
f 4//2 9//2 2//2
f 1//95 4//95 2//95
f 19//96 20//96 63//96
f 23//97 30//97 63//97
f 10//98 23//98 63//98
f 45//99 19//99 63//99
f 30//100 45//100 63//100
f 18//2 10//2 64//2
f 20//101 18//101 64//101
f 63//102 20//102 64//102
f 10//103 63//103 64//103
f 42//104 46//104 3//104
f 9//105 41//105 3//105
f 41//106 42//106 3//106
f 46//107 53//107 3//107
f 53//108 1//108 3//108
f 2//109 9//109 3//109
